<svg t="1599443267469" class="icon" viewBox="0 0 1049 1024" version="1.1" xmlns="http://www.w3.org/2000/svg" p-id="4273" width="40" height="50">
<path d="M844.55741 999.371591H204.612824A181.166578 181.166578 0 0 1 24.628409 817.515417V436.612439a182.250228 182.250228 0 0 1 77.678003-149.346673L426.169994 61.078455a179.147049 179.147049 0 0 1 206.336812 1.034393l315.883978 225.251431A182.250228 182.250228 0 0 1 1024.541825 435.775073v381.937371a181.166578 181.166578 0 0 1-179.885901 181.60989zM462.817067 113.586223L138.953485 339.724277A118.216364 118.216364 0 0 0 88.662273 436.563182v381.149262a116.984944 116.984944 0 0 0 116.196835 117.576026h639.452018a116.935687 116.935687 0 0 0 116.196835-117.378999V435.725817a118.216364 118.216364 0 0 0-49.256819-96.247824l-315.785463-225.251431a114.71913 114.71913 0 0 0-66.742989-21.328202 114.669873 114.669873 0 0 0-65.708596 20.687863z m59.502236 622.458416a235.64462 235.64462 0 0 1-200.672278-92.849103 31.967675 31.967675 0 0 1 5.910818-44.872962 31.967675 31.967675 0 0 1 44.922219 5.910819 174.713935 174.713935 0 0 0 149.937755 67.974409 177.324547 177.324547 0 0 0 153.927558-67.974409 32.016932 32.016932 0 0 1 44.922218-5.910819 32.115446 32.115446 0 0 1 5.960075 44.971476 238.797056 238.797056 0 0 1-189.34321 93.587955 891.548415 891.548415 0 0 1-15.762182-0.837366z" fill="#2c2c2c" p-id="4274"></path>
</svg>