<svg t="1599445008531" class="icon" viewBox="0 0 1280 1024" version="1.1" xmlns="http://www.w3.org/2000/svg" p-id="13333" width="40" height="50"><path d="M1119.552 0H159.744C70.976 0 0 78.208 0 174.272v675.456C0 945.792 71.68 1024 159.744 1024h960.512C1208.32 1024 1280 945.792 1280 849.728V174.272C1280 77.44 1207.68 0 1119.552 0z m75.136 849.728c0 44.672-33.472 81.152-74.432 81.152H159.744c-40.96 0-74.432-36.48-74.432-81.152V174.272c0-44.672 33.472-81.152 74.432-81.152h960.512c40.96 0 74.432 36.48 74.432 81.152v675.456z" p-id="13334" fill="#2c2c2c"></path><path d="M1023.232 327.168l-415.36 281.408-416.128-281.408a39.872 39.872 0 0 0-57.088 13.184 44.288 44.288 0 0 0 12.608 59.904l438.656 296.768a37.76 37.76 0 0 0 22.528 6.976 37.76 37.76 0 0 0 22.592-6.976l438.016-296.768c19.2-13.184 24.512-39.68 12.608-59.904-13.312-20.864-39.168-26.432-58.432-13.184z" p-id="13335" fill="#2c2c2c"></path></svg>