<svg t="1599464073665" class="icon" viewBox="0 0 1024 1024" version="1.1" xmlns="http://www.w3.org/2000/svg" p-id="16947" width="28" height="28"><path d="M390.28736 877.47584c0 24.80128-0.01024 48.46592 0.01024 72.13056 0 6.13376 0.23552 12.26752 0.14336 18.41152-0.31744 20.61312-15.2064 31.6928-34.99008 25.35424-46.97088-15.04256-90.32704-37.41696-130.27328-66.21184-96.54272-69.61152-161.26976-161.67936-192.83968-276.5312A484.3008 484.3008 0 0 1 15.8208 492.8512c6.32832-108.16512 43.08992-204.52352 111.58528-288.12288 76.91264-93.88032 175.48288-152.3712 294.89152-175.49312a473.9072 473.9072 0 0 1 117.94432-7.95648c115.456 6.74816 217.35424 47.7184 304.3328 124.37504 80.09728 70.6048 131.96288 158.34112 156.60032 262.05184 11.99104 50.47296 15.0016 101.77536 10.79296 153.50784-8.04864 98.57024-42.47552 187.02336-103.0144 265.03168-60.63104 78.11072-138.0864 133.31456-231.45472 165.9904-19.07712 6.67648-33.77152 0.74752-37.91872-14.99136-0.91136-3.44064-0.86016-7.168-0.86016-10.77248 0.03072-43.78624 0.06144-87.58272 0.256-131.3792 0.14336-34.65216-6.76864-66.8672-31.87712-93.47072 19.34336-3.6864 38.16448-6.58432 56.6272-10.9568 46.72512-11.0592 88.59648-30.95552 120.04352-68.79232 24.10496-28.96896 37.39648-62.91456 43.78624-99.52256 6.63552-38.07232 9.08288-76.36992 0.67584-114.61632-6.74816-30.75072-20.56192-58.03008-41.1136-81.77664-3.7888-4.39296-4.34176-8.00768-2.70336-13.37344 12.61568-40.91904 8.7552-81.18272-5.98016-120.70912-0.94208-2.52928-5.72416-4.95616-8.84736-5.12-23.99232-1.25952-46.2336 6.11328-67.29728 16.40448-19.42528 9.49248-37.84704 21.10464-56.95488 31.35488-3.44064 1.8432-8.35584 3.09248-12.00128 2.17088-58.15296-14.51008-116.98176-18.70848-176.41472-11.264-20.29568 2.53952-40.3456 7.17824-60.3648 11.55072-5.4784 1.19808-9.41056 0.33792-13.81376-2.57024-28.13952-18.61632-57.36448-35.23584-90.368-43.53024-11.20256-2.816-23.05024-3.30752-34.67264-3.98336-2.49856-0.1536-6.66624 2.94912-7.59808 5.46816-14.87872 40.1408-18.72896 80.8448-5.34528 122.32704 0.84992 2.63168-0.17408 7.03488-1.98656 9.18528-38.12352 45.1072-51.4048 97.37216-46.81728 155.48416 2.92864 37.18144 9.216 73.28768 25.94816 106.9568 25.64096 51.65056 68.51584 82.51392 122.32704 98.816 24.8832 7.53664 50.74944 11.776 76.32896 17.57184-1.8432 2.14016-4.77184 5.23264-7.3728 8.59136-11.264 14.63296-17.27488 31.50848-20.92032 49.41824-0.59392 2.92864-2.18112 7.13728-4.41344 8.05888-32.74752 13.49632-65.81248 18.0736-98.80576 0.79872-17.50016-9.17504-30.4128-23.25504-40.5504-39.9872-13.63968-22.46656-30.96576-41.23648-56.40192-49.75616-10.47552-3.5328-22.272-3.72736-33.49504-3.98336-3.85024-0.09216-9.51296 3.42016-11.14112 6.83008-1.18784 2.47808 2.22208 7.9872 4.77184 11.22304 2.8672 3.6352 6.71744 6.8096 10.72128 9.20576 28.16 16.81408 44.8512 42.7008 56.96512 72.02816 16.10752 39.04512 46.77632 58.90048 86.76352 66.00704 27.14624 4.83328 54.31296 2.46784 83.6096-3.65568z" fill="#d81e06" p-id="16948"></path><path d="M375.25504 842.0352c-4.05504-4.29056-6.6048-7.00416-9.15456-9.6768 3.71712-2.6624 7.17824-6.64576 11.264-7.46496 2.68288-0.54272 6.27712 3.56352 9.46176 5.57056l-11.5712 11.5712zM338.5344 826.3168l10.26048 10.2912c-3.66592 2.34496-7.29088 6.41024-11.01824 6.52288-3.29728 0.1024-6.72768-4.20864-10.09664-6.56384 3.072-2.9184 6.15424-5.81632 10.8544-10.25024zM257.87392 801.13664c7.68-0.14336 14.29504 5.48864 13.74208 10.752-0.26624 2.43712-3.06176 5.91872-5.376 6.57408-4.43392 1.2288-12.67712-6.59456-12.09344-11.3664 0.29696-2.49856 2.89792-4.72064 3.72736-5.95968zM299.22304 840.66304L287.46752 828.416c2.6624-1.90464 5.16096-5.05856 8.01792-5.40672 6.01088-0.768 11.4176 2.10944 12.20608 8.43776 0.26624 2.14016-4.32128 4.89472-8.46848 9.216zM249.00608 783.07328c-4.44416 3.31776-7.89504 6.47168-8.30464 6.11328a57.7536 57.7536 0 0 1-9.73824-10.752c-0.36864-0.55296 4.53632-5.81632 4.92544-5.57056 3.98336 2.48832 7.53664 5.65248 13.11744 10.20928zM228.13696 755.54816c-3.9936 3.072-6.71744 5.69344-7.10656 5.376a62.27968 62.27968 0 0 1-9.09312-9.05216c-0.19456-0.21504 3.45088-4.52608 3.97312-4.27008 3.6864 1.86368 7.02464 4.42368 12.22656 7.94624zM197.2736 728.68864l6.35904 7.48544c-1.7408 1.30048-4.2496 4.096-5.09952 3.66592-2.88768-1.49504-5.84704-3.7376-7.44448-6.48192-0.75776-1.31072 1.49504-4.36224 2.39616-6.62528l3.7888 1.95584z" fill="#d81e06" p-id="16949"></path></svg>